<?xml version="1.0" standalone="no"?>
<!DOCTYPE svg PUBLIC "-//W3C//DTD SVG 20010904//EN"
 "http://www.w3.org/TR/2001/REC-SVG-20010904/DTD/svg10.dtd">
<svg version="1.0" xmlns="http://www.w3.org/2000/svg"
 width="180.000000pt" height="180.000000pt" viewBox="0 0 180.000000 180.000000"
 preserveAspectRatio="xMidYMid meet">

<g transform="translate(0.000000,180.000000) scale(0.100000,-0.100000)"
fill="#000000" stroke="none">
<path d="M290 1371 c0 -431 4 -470 55 -607 30 -80 91 -191 140 -253 87 -112
238 -240 364 -309 l55 -30 60 31 c287 146 480 389 541 682 11 53 15 170 17
475 l3 405 -617 3 -618 2 0 -399z m1068 333 c16 -5 22 -14 22 -36 0 -28 -1
-29 -22 -14 -29 20 -52 20 -72 0 -22 -22 -20 -41 8 -67 13 -12 39 -37 59 -55
30 -28 36 -40 33 -69 -4 -49 -44 -83 -96 -83 -54 0 -70 8 -70 36 0 26 10 30
27 13 33 -33 83 -12 83 36 0 30 -6 39 -39 59 -70 44 -90 98 -53 142 32 40 69
51 120 38z m-748 -45 c0 -6 94 -205 128 -271 2 -5 -12 -8 -30 -8 -33 0 -35 2
-47 50 l-13 50 -63 0 c-62 0 -63 -1 -74 -31 -6 -18 -11 -40 -11 -50 0 -15 -8
-19 -39 -19 l-40 0 35 61 c33 59 79 154 111 229 14 33 16 33 29 15 8 -10 14
-22 14 -26z m314 16 c32 -29 35 -76 6 -105 -20 -20 -20 -20 4 -35 46 -30 44
-105 -3 -130 -15 -7 -54 -17 -87 -20 l-59 -7 0 161 0 161 56 0 c46 0 61 -5 83
-25z m236 19 c0 -3 -5 -14 -10 -24 -9 -16 -15 -18 -36 -10 -55 21 -64 15 -64
-45 l0 -55 50 0 c49 0 50 0 38 -25 -7 -16 -17 -24 -26 -20 -59 23 -62 21 -62
-39 l0 -56 41 0 c22 0 49 5 61 11 26 14 30 8 15 -24 -12 -26 -15 -27 -92 -27
l-80 0 0 160 0 160 83 0 c45 0 82 -3 82 -6z m-172 -443 c8 -5 12 -22 10 -42
-3 -32 -5 -34 -45 -37 -33 -2 -43 0 -43 12 0 19 17 30 25 16 11 -18 26 -10 23
13 -2 18 -9 22 -38 22 -33 0 -35 -2 -38 -37 -3 -37 -2 -38 30 -38 18 0 48 -4
66 -10 31 -8 35 -7 50 21 38 69 34 68 105 30 l65 -35 -16 -33 c-9 -18 -20 -33
-25 -33 -17 0 -67 34 -64 44 6 17 27 18 27 2 0 -21 26 -21 34 0 8 20 10 17
-31 38 l-31 16 -22 -37 c-17 -29 -18 -38 -8 -44 7 -5 16 -9 20 -9 4 0 23 -14
43 -31 l35 -31 45 26 44 26 14 -22 c33 -54 57 -100 57 -108 0 -10 -59 -44 -65
-38 -5 7 -35 67 -35 73 0 3 6 5 14 5 8 0 13 -7 12 -16 -1 -20 14 -27 32 -15
11 7 11 14 -3 42 -10 19 -19 35 -20 37 -1 2 -18 -6 -37 -18 l-35 -20 26 -54
c26 -54 27 -55 71 -56 67 -1 71 -6 68 -86 l-3 -69 -41 -3 -40 -3 0 42 c1 23 6
44 13 46 15 5 26 -14 13 -22 -20 -12 -11 -37 13 -33 18 2 23 10 25 41 l3 37
-45 0 c-46 0 -46 0 -46 -34 0 -18 -3 -47 -6 -62 -5 -26 -1 -32 35 -52 22 -13
43 -27 46 -32 4 -7 -49 -104 -71 -128 -4 -5 -64 31 -64 38 0 16 42 70 50 65
14 -9 12 -35 -2 -33 -7 2 -13 -4 -13 -12 0 -27 30 -21 48 9 22 37 22 36 -15
59 l-32 20 -26 -41 c-15 -23 -34 -48 -43 -56 -16 -12 -15 -17 13 -54 17 -23
30 -44 30 -49 0 -4 -27 -25 -59 -48 l-60 -40 -21 31 -22 30 27 24 c16 13 34
21 42 18 19 -8 16 -23 -5 -23 -26 0 -34 -11 -21 -27 15 -18 22 -17 53 8 27 21
26 29 -7 72 -14 16 -17 16 -71 -8 l-56 -25 0 -55 0 -55 -75 0 -75 0 0 34 c0
31 3 34 36 41 42 7 49 3 39 -22 -5 -12 -9 -14 -12 -5 -8 20 -33 14 -33 -8 0
-17 7 -20 41 -20 l40 0 -3 41 c-3 41 -4 41 -45 44 -23 2 -50 6 -61 9 -15 5
-23 -4 -42 -44 -13 -27 -29 -50 -36 -50 -10 0 -108 52 -122 65 -5 4 27 65 34
65 13 0 64 -32 64 -40 0 -16 -18 -11 -29 8 -9 15 -12 15 -21 2 -5 -8 -10 -19
-10 -25 0 -9 60 -49 65 -43 1 2 11 19 22 39 l20 36 -49 36 c-27 21 -52 37 -57
37 -4 0 -22 -11 -41 -25 -19 -14 -39 -25 -45 -25 -7 0 -24 22 -39 50 -15 27
-31 52 -36 55 -18 11 -11 23 23 40 31 16 32 16 54 -11 11 -15 19 -33 16 -41
-8 -21 -28 -9 -25 15 4 25 -10 29 -27 8 -11 -14 -5 -31 26 -75 1 -2 19 9 39
24 21 16 32 30 25 34 -5 4 -20 28 -31 54 l-21 47 -59 0 c-68 0 -66 -4 -54 98
7 51 7 52 40 52 33 0 34 -1 34 -40 0 -29 -4 -40 -15 -40 -8 0 -15 5 -15 10 0
6 5 10 10 10 6 0 10 7 10 15 0 8 -9 15 -20 15 -14 0 -21 -9 -26 -34 -8 -46 0
-56 47 -56 l39 0 0 48 c0 26 3 57 6 68 5 17 -4 27 -46 53 -33 20 -48 36 -44
44 8 14 65 100 71 107 2 2 19 -4 37 -14 l34 -18 -20 -34 c-20 -34 -29 -40 -42
-27 -4 4 3 15 15 24 22 16 22 17 2 27 -17 9 -23 6 -42 -19 -12 -16 -19 -34
-16 -39 6 -9 67 -42 70 -38 26 42 51 76 63 85 13 11 11 19 -16 60 -17 26 -29
50 -26 54 5 9 88 56 114 64 14 5 23 -1 35 -24 15 -31 15 -31 -17 -50 -31 -19
-48 -19 -48 0 0 5 9 9 20 9 21 0 28 24 10 35 -10 6 -70 -21 -70 -33 0 -4 9
-21 20 -39 l19 -32 43 24 c24 14 51 25 61 25 13 0 17 9 19 43 0 23 2 47 3 52
2 6 3 13 4 18 1 10 123 9 139 -2z"/>
<path d="M560 1573 c-8 -21 -16 -41 -18 -45 -2 -5 15 -8 37 -8 23 0 41 2 41 5
0 13 -33 85 -39 85 -4 0 -13 -17 -21 -37z"/>
<path d="M840 1615 c0 -59 4 -63 38 -39 39 27 25 94 -20 94 -15 0 -18 -9 -18
-55z"/>
<path d="M840 1476 c0 -61 1 -64 23 -59 57 14 70 66 25 106 -38 32 -48 22 -48
-47z"/>
<path d="M886 968 c-22 -31 -20 -48 10 -102 25 -44 42 -62 30 -30 -3 9 -2 12
5 9 5 -4 7 -16 3 -27 -6 -19 -3 -20 32 -15 37 6 37 5 -9 -10 -41 -15 -50 -15
-57 -3 -5 9 -4 20 3 29 9 12 9 13 0 8 -7 -5 -21 1 -33 13 -28 28 -62 40 -113
40 -38 0 -40 -1 -25 -16 9 -9 37 -18 62 -20 26 -2 54 -8 63 -13 12 -6 3 -8
-28 -5 -106 9 -149 11 -149 7 0 -2 4 -13 10 -23 8 -16 5 -19 -20 -25 -17 -4
-30 -11 -30 -16 0 -12 18 -11 65 5 44 16 122 11 172 -9 26 -11 38 -11 74 1 59
21 147 21 186 0 20 -10 34 -12 38 -6 9 15 -4 30 -26 30 -22 0 -23 4 -9 30 9
16 6 18 -33 13 -41 -6 -42 -6 -24 14 25 29 22 33 -25 34 -24 0 -37 3 -30 6 6
2 12 18 12 34 0 29 0 29 -29 14 -16 -8 -41 -29 -55 -47 -14 -18 -26 -28 -26
-22 0 6 7 17 15 24 19 16 19 33 0 70 -18 36 -38 38 -59 8z m123 -91 c-2 -2
-17 -11 -34 -21 l-30 -17 24 20 c13 12 28 21 34 21 6 0 8 -1 6 -3z m46 -37
c-3 -5 -23 -9 -43 -9 l-37 1 30 8 c44 11 57 11 50 0z m-248 -26 c-3 -3 -12 -4
-19 -1 -8 3 -5 6 6 6 11 1 17 -2 13 -5z m-70 -10 c-3 -3 -12 -4 -19 -1 -8 3
-5 6 6 6 11 1 17 -2 13 -5z m380 0 c-3 -3 -12 -4 -19 -1 -8 3 -5 6 6 6 11 1
17 -2 13 -5z"/>
<path d="M786 942 c-10 -17 7 -51 28 -58 11 -3 36 -17 54 -31 39 -29 41 -20 7
30 -26 38 -80 73 -89 59z"/>
<path d="M640 75 c0 -47 3 -55 19 -55 10 0 21 7 25 15 4 10 -1 15 -14 15 -11
0 -20 7 -20 15 0 9 6 12 15 9 8 -4 15 -1 15 5 0 6 -7 11 -15 11 -8 0 -15 5
-15 10 0 6 7 10 15 10 8 0 15 5 15 10 0 6 -9 10 -20 10 -18 0 -20 -7 -20 -55z"/>
<path d="M937 123 c-13 -13 -7 -25 7 -14 26 21 26 -5 1 -39 -32 -44 -31 -50 5
-50 21 0 30 5 30 16 0 11 -5 14 -16 10 -9 -3 -14 -3 -12 1 2 5 10 21 18 36 12
25 12 30 -1 38 -17 11 -24 11 -32 2z"/>
<path d="M1012 118 c-16 -16 -15 -59 3 -82 13 -17 15 -17 29 -3 9 9 16 20 16
26 0 6 5 11 10 11 6 0 10 -5 10 -11 0 -6 7 -17 16 -26 14 -14 16 -14 29 3 18
24 19 68 1 83 -16 14 -46 4 -46 -15 0 -8 -4 -14 -10 -14 -5 0 -10 6 -10 14 0
8 -7 17 -16 20 -20 8 -18 8 -32 -6z m118 -38 c0 -20 -23 -43 -33 -33 -4 3 -7
18 -7 33 0 15 3 30 7 33 10 10 33 -13 33 -33z m-80 0 c0 -20 -5 -30 -15 -30
-18 0 -30 24 -21 45 10 28 36 17 36 -15z"/>
<path d="M1162 118 c-17 -17 -15 -59 4 -83 15 -20 15 -20 35 4 23 28 24 54 3
75 -19 19 -26 20 -42 4z m38 -38 c0 -36 -16 -47 -30 -20 -8 14 -8 26 0 40 14
27 30 16 30 -20z"/>
<path d="M820 111 c0 -5 -9 -13 -20 -16 -22 -7 -27 -40 -9 -65 8 -11 12 -12
16 -2 2 6 9 10 14 6 5 -3 9 15 9 40 0 25 -2 46 -5 46 -3 0 -5 -4 -5 -9z m0
-41 c0 -11 -7 -20 -15 -20 -15 0 -21 21 -8 33 12 13 23 7 23 -13z"/>
<path d="M740 78 c0 -37 15 -67 27 -55 4 4 2 16 -4 26 -6 10 -8 24 -3 31 10
15 4 30 -11 30 -5 0 -9 -15 -9 -32z"/>
<path d="M702 91 c-11 -7 -10 -11 2 -24 10 -10 12 -18 6 -22 -12 -8 -13 -25
-1 -25 15 0 22 32 9 47 -9 11 -9 16 3 24 8 5 10 9 4 9 -5 0 -16 -4 -23 -9z"/>
<path d="M850 40 c0 -5 5 -10 10 -10 6 0 10 5 10 10 0 6 -4 10 -10 10 -5 0
-10 -4 -10 -10z"/>
</g>
</svg>
